<mxfile host="app.diagrams.net" agent="Mozilla/5.0 (Windows NT 10.0; Win64; x64) AppleWebKit/537.36 (KHTML, like Gecko) Chrome/128.0.0.0 Safari/537.36 OPR/114.0.0.0" version="24.8.4">
  <diagram name="Page-1" id="Y2clpXzP2t3OfS7cpJqB">
    <mxGraphModel dx="1172" dy="615" grid="1" gridSize="10" guides="1" tooltips="1" connect="1" arrows="1" fold="1" page="1" pageScale="1" pageWidth="827" pageHeight="1169" math="0" shadow="0">
      <root>
        <mxCell id="0" />
        <mxCell id="1" parent="0" />
        <mxCell id="akUWJ80VYBRQg0wGX237-3" value="" style="edgeStyle=orthogonalEdgeStyle;rounded=0;orthogonalLoop=1;jettySize=auto;html=1;" edge="1" parent="1" source="akUWJ80VYBRQg0wGX237-1" target="akUWJ80VYBRQg0wGX237-2">
          <mxGeometry relative="1" as="geometry" />
        </mxCell>
        <mxCell id="akUWJ80VYBRQg0wGX237-1" value="Début" style="ellipse;whiteSpace=wrap;html=1;" vertex="1" parent="1">
          <mxGeometry x="354" y="30" width="120" height="80" as="geometry" />
        </mxCell>
        <mxCell id="akUWJ80VYBRQg0wGX237-15" value="" style="edgeStyle=orthogonalEdgeStyle;rounded=0;orthogonalLoop=1;jettySize=auto;html=1;" edge="1" parent="1" source="akUWJ80VYBRQg0wGX237-2" target="akUWJ80VYBRQg0wGX237-14">
          <mxGeometry relative="1" as="geometry" />
        </mxCell>
        <mxCell id="akUWJ80VYBRQg0wGX237-2" value="Chargement du conteneur sur le mode de transport interne" style="rounded=0;whiteSpace=wrap;html=1;" vertex="1" parent="1">
          <mxGeometry x="354" y="170" width="120" height="60" as="geometry" />
        </mxCell>
        <mxCell id="akUWJ80VYBRQg0wGX237-7" value="" style="edgeStyle=orthogonalEdgeStyle;rounded=0;orthogonalLoop=1;jettySize=auto;html=1;" edge="1" parent="1" target="akUWJ80VYBRQg0wGX237-6">
          <mxGeometry relative="1" as="geometry">
            <mxPoint x="414" y="540" as="sourcePoint" />
          </mxGeometry>
        </mxCell>
        <mxCell id="akUWJ80VYBRQg0wGX237-4" value="Transport du conteneur jusqu&#39;au Yard" style="rounded=0;whiteSpace=wrap;html=1;" vertex="1" parent="1">
          <mxGeometry x="354" y="490" width="120" height="60" as="geometry" />
        </mxCell>
        <mxCell id="akUWJ80VYBRQg0wGX237-9" value="" style="edgeStyle=orthogonalEdgeStyle;rounded=0;orthogonalLoop=1;jettySize=auto;html=1;" edge="1" parent="1" source="akUWJ80VYBRQg0wGX237-6" target="akUWJ80VYBRQg0wGX237-8">
          <mxGeometry relative="1" as="geometry" />
        </mxCell>
        <mxCell id="akUWJ80VYBRQg0wGX237-6" value="Récupération du conteneur via les grues de yard" style="rounded=0;whiteSpace=wrap;html=1;" vertex="1" parent="1">
          <mxGeometry x="354" y="600" width="120" height="60" as="geometry" />
        </mxCell>
        <mxCell id="akUWJ80VYBRQg0wGX237-24" style="edgeStyle=orthogonalEdgeStyle;rounded=0;orthogonalLoop=1;jettySize=auto;html=1;" edge="1" parent="1" source="akUWJ80VYBRQg0wGX237-8">
          <mxGeometry relative="1" as="geometry">
            <mxPoint x="414" y="820" as="targetPoint" />
          </mxGeometry>
        </mxCell>
        <mxCell id="akUWJ80VYBRQg0wGX237-8" value="stockage du conteneur dans le yard" style="whiteSpace=wrap;html=1;rounded=0;" vertex="1" parent="1">
          <mxGeometry x="354" y="720" width="120" height="60" as="geometry" />
        </mxCell>
        <mxCell id="akUWJ80VYBRQg0wGX237-13" value="Fin" style="ellipse;whiteSpace=wrap;html=1;" vertex="1" parent="1">
          <mxGeometry x="354" y="820" width="120" height="80" as="geometry" />
        </mxCell>
        <mxCell id="akUWJ80VYBRQg0wGX237-16" value="" style="edgeStyle=orthogonalEdgeStyle;rounded=0;orthogonalLoop=1;jettySize=auto;html=1;" edge="1" parent="1" source="akUWJ80VYBRQg0wGX237-14" target="akUWJ80VYBRQg0wGX237-4">
          <mxGeometry relative="1" as="geometry" />
        </mxCell>
        <mxCell id="akUWJ80VYBRQg0wGX237-19" value="" style="edgeStyle=orthogonalEdgeStyle;rounded=0;orthogonalLoop=1;jettySize=auto;html=1;" edge="1" parent="1" source="akUWJ80VYBRQg0wGX237-14" target="akUWJ80VYBRQg0wGX237-18">
          <mxGeometry relative="1" as="geometry" />
        </mxCell>
        <mxCell id="akUWJ80VYBRQg0wGX237-21" value="NON" style="edgeLabel;html=1;align=center;verticalAlign=middle;resizable=0;points=[];" vertex="1" connectable="0" parent="akUWJ80VYBRQg0wGX237-19">
          <mxGeometry x="-0.5486" y="4" relative="1" as="geometry">
            <mxPoint y="11" as="offset" />
          </mxGeometry>
        </mxCell>
        <mxCell id="akUWJ80VYBRQg0wGX237-14" value="Le Chemin jusqu&#39;au&amp;nbsp;&lt;div&gt;yard est-il disponible ?&lt;/div&gt;" style="rhombus;whiteSpace=wrap;html=1;" vertex="1" parent="1">
          <mxGeometry x="314.5" y="290" width="199" height="130" as="geometry" />
        </mxCell>
        <mxCell id="akUWJ80VYBRQg0wGX237-17" value="OUI" style="text;html=1;align=center;verticalAlign=middle;resizable=0;points=[];autosize=1;strokeColor=none;fillColor=none;" vertex="1" parent="1">
          <mxGeometry x="420" y="428" width="40" height="30" as="geometry" />
        </mxCell>
        <mxCell id="akUWJ80VYBRQg0wGX237-22" style="edgeStyle=orthogonalEdgeStyle;rounded=0;orthogonalLoop=1;jettySize=auto;html=1;exitX=0.5;exitY=0;exitDx=0;exitDy=0;" edge="1" parent="1" source="akUWJ80VYBRQg0wGX237-18">
          <mxGeometry relative="1" as="geometry">
            <mxPoint x="420" y="260" as="targetPoint" />
            <Array as="points">
              <mxPoint x="135" y="260" />
              <mxPoint x="410" y="260" />
            </Array>
          </mxGeometry>
        </mxCell>
        <mxCell id="akUWJ80VYBRQg0wGX237-18" value="Attendre que le chemin se libère&amp;nbsp;" style="whiteSpace=wrap;html=1;" vertex="1" parent="1">
          <mxGeometry x="75" y="325" width="120" height="60" as="geometry" />
        </mxCell>
      </root>
    </mxGraphModel>
  </diagram>
</mxfile>
